{"title":"The Walking Dead - 313 720p XBOX360/PS3 READY","uid":8244762,"size":1496677820,"categoryP":"video","categoryS":"hd___tv_shows","magnet":"?xt=urn:btih:0671c5aeb90120b6f8ae1f706b4af5db399ff39b&amp;dn=The+Walking+Dead+-+313+720p+XBOX360%2FPS3+READY&amp;tr=udp%3A%2F%2Ftracker.openbittorrent.com%3A80&amp;tr=udp%3A%2F%2Fopen.demonii.com%3A1337&amp;tr=udp%3A%2F%2Ftracker.coppersurfer.tk%3A6969&amp;tr=udp%3A%2F%2Fexodus.desync.com%3A6969","seeders":2,"leechers":0,"uploader":"Danimal1q2w3","files":1,"time":1363030006,"description":"313\n\nEnjoy\n\nonly 3 episodes left\n\nVideo\nID                                       : 0\nFormat                                   : MPEG-4 Visual\nFormat profile                           : Simple@L3\nFormat settings, BVOP                    : No\nFormat settings, QPel                    : No\nFormat settings, GMC                     : No warppoints\nFormat settings, Matrix                  : Default (H.263)\nCodec ID                                 : XVID\nCodec ID/Hint                            : XviD\nDuration                                 : 43mn 15s\nBit rate                                 : 4 291 Kbps\nWidth                                    : 1 280 pixels\nHeight                                   : 720 pixels\nDisplay aspect ratio                     : 16:9\nFrame rate                               : 23.976 fps\nColor space                              : YUV\nChroma subsampling                       : 4:2:0\nBit depth                                : 8 bits\nScan type                                : Progressive\nCompression mode                         : Lossy\nBits/(Pixel*Frame)                       : 0.194\nStream size                              : 1.30 GiB (93%)\nWriting library                          : XviD 63\n\nAudio\nID                                       : 1\nFormat                                   : MPEG Audio\nFormat version                           : Version 1\nFormat profile                           : Layer 3\nMode                                     : Joint stereo\nMode extension                           : MS Stereo\nCodec ID                                 : 55\nCodec ID/Hint                            : MP3\nDuration                                 : 43mn 15s\nBit rate mode                            : Variable\nBit rate                                 : 309 Kbps\nChannel(s)                               : 2 channels\nSampling rate                            : 48.0 KHz\nCompression mode                         : Lossy\nStream size                              : 95.5 MiB (7%)\nAlignment                                : Aligned on interleaves\nInterleave, duration                     : 24 ms (0.58 video frame)\nInterleave, preload duration             : 512 ms","torrent":{"xt":"urn:btih:0671c5aeb90120b6f8ae1f706b4af5db399ff39b","amp;dn":"The+Walking+Dead+-+313+720p+XBOX360%2FPS3+READY","amp;tr":["udp%3A%2F%2Ftracker.openbittorrent.com%3A80","udp%3A%2F%2Fopen.demonii.com%3A1337","udp%3A%2F%2Ftracker.coppersurfer.tk%3A6969","udp%3A%2F%2Fexodus.desync.com%3A6969"],"infoHash":"0671c5aeb90120b6f8ae1f706b4af5db399ff39b","infoHashBuffer":{"type":"Buffer","data":[6,113,197,174,185,1,32,182,248,174,31,112,107,74,245,219,57,159,243,155]},"announce":[],"urlList":[]}}